<?xml version="1.0" encoding="UTF-8" standalone="no"?>
<svg
   xmlns:dc="http://purl.org/dc/elements/1.1/"
   xmlns:cc="http://creativecommons.org/ns#"
   xmlns:rdf="http://www.w3.org/1999/02/22-rdf-syntax-ns#"
   xmlns:svg="http://www.w3.org/2000/svg"
   xmlns="http://www.w3.org/2000/svg"
   xmlns:sodipodi="http://sodipodi.sourceforge.net/DTD/sodipodi-0.dtd"
   xmlns:inkscape="http://www.inkscape.org/namespaces/inkscape"
   version="1.1"
   id="svg2"
   viewBox="0 0 464.43199 68.691462"
   height="19.386257mm"
   width="131.07303mm"
   inkscape:version="0.91 r13725"
   sodipodi:docname="logo.svg">
  <sodipodi:namedview
     pagecolor="#ffffff"
     bordercolor="#666666"
     borderopacity="1"
     objecttolerance="10"
     gridtolerance="10"
     guidetolerance="10"
     inkscape:pageopacity="0"
     inkscape:pageshadow="2"
     inkscape:window-width="3200"
     inkscape:window-height="1780"
     id="namedview4153"
     showgrid="false"
     fit-margin-top="0"
     fit-margin-left="0"
     fit-margin-right="0"
     fit-margin-bottom="0"
     inkscape:zoom="0.96724018"
     inkscape:cx="316.15083"
     inkscape:cy="-86.067688"
     inkscape:window-x="0"
     inkscape:window-y="20"
     inkscape:window-maximized="0"
     inkscape:current-layer="svg2" />
  <defs
     id="defs4" />
  <metadata
     id="metadata7">
    <rdf:RDF>
      <cc:Work
         rdf:about="">
        <dc:format>image/svg+xml</dc:format>
        <dc:type
           rdf:resource="http://purl.org/dc/dcmitype/StillImage" />
        <dc:title></dc:title>
      </cc:Work>
    </rdf:RDF>
  </metadata>
  <g
     id="layer1"
     transform="translate(-1.4849853e-6,0)">
    <g
       transform="translate(40,100)"
       id="g4180">
      <g
         transform="translate(-137.80938,-474.53495)"
         id="g4737">
        <g
           id="text4170"
           style="font-style:normal;font-weight:normal;font-size:71.92822266px;line-height:125%;font-family:sans-serif;letter-spacing:0px;word-spacing:0px;fill:#000000;fill-opacity:1;stroke:none;stroke-width:1px;stroke-linecap:butt;stroke-linejoin:miter;stroke-opacity:1">
          <path
             id="path4745"
             style="font-style:normal;font-variant:normal;font-weight:normal;font-stretch:normal;font-family:Comfortaa;-inkscape-font-specification:Comfortaa"
             d="m 282.58221,386.6189 q 4.24376,0 7.48053,2.01399 3.3087,2.01399 5.1069,5.75425 1.87014,3.66834 1.87014,8.55946 l 0,20.71533 q 0,1.22278 -0.79121,2.01399 -0.71928,0.71928 -1.94206,0.71928 -1.22278,0 -2.01399,-0.71928 -0.79122,-0.79121 -0.79122,-2.01399 l 0,-20.71533 q 0,-5.1069 -2.66134,-8.05596 -2.58942,-3.02098 -6.83318,-3.02098 -4.53148,0 -7.33668,3.02098 -2.8052,3.02099 -2.73327,7.91211 l 0,0.14385 0,20.71533 q 0,1.22278 -0.79121,2.01399 -0.71928,0.71928 -1.94206,0.71928 -1.22278,0 -2.01399,-0.71928 -0.79121,-0.79121 -0.79121,-2.01399 l 0,-20.71533 q 0,-5.1069 -2.66135,-8.05596 -2.58942,-3.02098 -6.83318,-3.02098 -4.45955,0 -7.33668,2.94905 -2.87713,2.94906 -2.87713,7.55247 l 0,21.29075 q 0,1.22278 -0.79121,2.01399 -0.71928,0.71928 -1.94206,0.71928 -1.22278,0 -2.01399,-0.71928 -0.79121,-0.79121 -0.79121,-2.01399 l 0,-33.80626 q 0,-1.22278 0.79121,-2.01399 0.79121,-0.79122 2.01399,-0.79122 1.22278,0 1.94206,0.79122 0.79121,0.79121 0.79121,2.01399 l 0,1.58242 q 2.01399,-2.30171 4.74726,-3.52449 2.80521,-1.2947 6.04198,-1.2947 3.95605,0 7.12089,1.7982 3.16484,1.79821 5.03498,5.03498 2.08591,-3.23677 5.39461,-5.03498 3.38063,-1.7982 7.55247,-1.7982 z"
             inkscape:connector-curvature="0" />
          <path
             id="path4747"
             style="font-style:normal;font-variant:normal;font-weight:normal;font-stretch:normal;font-family:Comfortaa;-inkscape-font-specification:Comfortaa"
             d="m 326.04596,386.69082 q 5.32269,0 9.42259,2.51749 4.09991,2.44556 6.32969,6.83318 2.3017,4.38762 2.3017,9.99803 0,1.15085 -0.71928,1.87013 -0.71928,0.64735 -1.87014,0.64735 l -29.059,0 q 0.57543,5.89812 4.60341,9.56646 4.02798,3.66834 10.06995,3.66834 2.58942,0 5.17883,-0.86314 2.66135,-0.93507 4.24377,-2.30171 0.93506,-0.71928 1.94206,-0.71928 0.79121,0 1.58242,0.57543 0.93507,0.86314 0.93507,1.94206 0,0.93507 -0.79121,1.65435 -2.37363,2.01399 -6.04197,3.38063 -3.66834,1.2947 -7.04897,1.2947 -5.75426,0 -10.28574,-2.51748 -4.53147,-2.58942 -7.12089,-7.1209 -2.51749,-4.6034 -2.51749,-10.35766 0,-5.82619 2.37363,-10.35767 2.44556,-4.6034 6.68933,-7.12089 4.31569,-2.58942 9.78224,-2.58942 z m 0,4.96305 q -5.46655,0 -9.06296,3.38063 -3.59641,3.38062 -4.38762,8.9191 l 26.32573,0 q -0.57543,-5.53848 -4.02798,-8.9191 -3.45256,-3.38063 -8.84717,-3.38063 z"
             inkscape:connector-curvature="0" />
          <path
             id="path4749"
             style="font-style:normal;font-variant:normal;font-weight:normal;font-stretch:normal;font-family:Comfortaa;-inkscape-font-specification:Comfortaa"
             d="m 370.73361,420.85673 q 1.15085,0 1.87013,0.79121 0.71929,0.79121 0.71929,2.01399 0,1.15085 -0.86314,1.94206 -0.86314,0.79121 -2.15785,0.79121 l -1.51049,0 q -3.8122,0 -6.83318,-1.7982 -3.02099,-1.87014 -4.74726,-4.96305 -1.65435,-3.16484 -1.65435,-7.12089 l 0,-19.20484 -4.67534,0 q -1.15085,0 -1.87013,-0.64735 -0.64736,-0.71929 -0.64736,-1.72628 0,-1.07892 0.64736,-1.72628 0.71928,-0.71928 1.87013,-0.71928 l 4.67534,0 0,-11.14888 q 0,-1.22278 0.71928,-2.01399 0.79121,-0.79121 2.01399,-0.79121 1.22278,0 2.01399,0.79121 0.79121,0.79121 0.79121,2.01399 l 0,11.14888 8.12789,0 q 1.15085,0 1.7982,0.71928 0.71929,0.64736 0.71929,1.72628 0,1.00699 -0.71929,1.72628 -0.64735,0.64735 -1.7982,0.64735 l -8.12789,0 0,19.20484 q 0,3.66834 2.15785,6.04197 2.15784,2.3017 5.53847,2.3017 l 1.94206,0 z"
             inkscape:connector-curvature="0" />
          <path
             id="path4751"
             style="font-style:normal;font-variant:normal;font-weight:normal;font-stretch:normal;font-family:Comfortaa;-inkscape-font-specification:Comfortaa"
             d="m 400.10843,386.69082 q 5.6104,0 10.14188,2.66135 4.60341,2.58941 7.19282,7.19282 2.66135,4.60341 2.66135,10.21381 l 0,16.90313 q 0,1.15085 -0.79122,1.94206 -0.79121,0.79121 -2.01399,0.79121 -1.22278,0 -2.01399,-0.71928 -0.79121,-0.79121 -0.79121,-2.01399 l 0,-4.31569 q -2.51748,3.45255 -6.40161,5.46654 -3.88412,1.94206 -8.55946,1.94206 -5.46654,0 -9.92609,-2.58941 -4.38762,-2.66135 -6.97704,-7.19282 -2.51749,-4.60341 -2.51749,-10.21381 0,-5.6104 2.58942,-10.21381 2.66134,-4.60341 7.19282,-7.19282 4.60341,-2.66135 10.21381,-2.66135 z m 0,35.02905 q 4.09991,0 7.40861,-1.94206 3.30869,-1.94207 5.17883,-5.32269 1.94206,-3.45256 1.94206,-7.69632 0,-4.24377 -1.94206,-7.62439 -1.87014,-3.45256 -5.17883,-5.39462 -3.3087,-2.01399 -7.40861,-2.01399 -4.09991,0 -7.48054,2.01399 -3.30869,1.94206 -5.25076,5.39462 -1.87013,3.38062 -1.87013,7.62439 0,4.24376 1.87013,7.69632 1.94207,3.38062 5.25076,5.32269 3.38063,1.94206 7.48054,1.94206 z"
             inkscape:connector-curvature="0" />
          <path
             id="path4753"
             style="font-style:normal;font-variant:normal;font-weight:normal;font-stretch:normal;font-family:Comfortaa;-inkscape-font-specification:Comfortaa"
             d="m 450.80207,386.69082 q 5.61041,0 10.14188,2.66135 4.60341,2.58941 7.19283,7.19282 2.66134,4.60341 2.66134,10.21381 0,5.6104 -2.58942,10.21381 -2.51748,4.53147 -6.97703,7.19282 -4.38762,2.58941 -9.85417,2.58941 -4.67533,0 -8.55946,-1.94206 -3.88412,-2.01399 -6.40161,-5.46654 l 0,21.07497 q 0,1.22278 -0.79121,2.01399 -0.79121,0.79121 -2.01399,0.79121 -1.22278,0 -2.01399,-0.79121 -0.71928,-0.79121 -0.71928,-2.01399 l 0,-16.11193 q -0.0719,-0.21578 -0.0719,-0.64735 l 0,-16.90313 q 0,-5.6104 2.58942,-10.21381 2.66134,-4.60341 7.19282,-7.19282 4.6034,-2.66135 10.2138,-2.66135 z m 0,35.02905 q 4.09991,0 7.40861,-1.94206 3.38063,-1.94207 5.25076,-5.32269 1.94206,-3.45256 1.94206,-7.69632 0,-4.24377 -1.94206,-7.62439 -1.87013,-3.45256 -5.25076,-5.39462 -3.3087,-2.01399 -7.40861,-2.01399 -4.0999,0 -7.4086,2.01399 -3.3087,1.94206 -5.25076,5.39462 -1.87014,3.38062 -1.87014,7.62439 0,1.22278 0.0719,1.7982 0.0719,0.14386 0.0719,0.35964 0.71928,5.61041 4.67533,9.20682 4.02799,3.59641 9.71031,3.59641 z"
             inkscape:connector-curvature="0" />
          <path
             id="path4755"
             style="font-style:normal;font-variant:normal;font-weight:normal;font-stretch:normal;font-family:Comfortaa;-inkscape-font-specification:Comfortaa"
             d="m 498.4208,386.69082 q 5.32269,0 9.4226,2.51749 4.09991,2.44556 6.32968,6.83318 2.30171,4.38762 2.30171,9.99803 0,1.15085 -0.71928,1.87013 -0.71929,0.64735 -1.87014,0.64735 l -29.059,0 q 0.57543,5.89812 4.60341,9.56646 4.02798,3.66834 10.06995,3.66834 2.58941,0 5.17883,-0.86314 2.66134,-0.93507 4.24376,-2.30171 0.93507,-0.71928 1.94207,-0.71928 0.79121,0 1.58242,0.57543 0.93506,0.86314 0.93506,1.94206 0,0.93507 -0.79121,1.65435 -2.37363,2.01399 -6.04197,3.38063 -3.66834,1.2947 -7.04896,1.2947 -5.75426,0 -10.28574,-2.51748 -4.53148,-2.58942 -7.12089,-7.1209 -2.51749,-4.6034 -2.51749,-10.35766 0,-5.82619 2.37363,-10.35767 2.44556,-4.6034 6.68933,-7.12089 4.31569,-2.58942 9.78223,-2.58942 z m 0,4.96305 q -5.46654,0 -9.06295,3.38063 -3.59641,3.38062 -4.38762,8.9191 l 26.32573,0 q -0.57543,-5.53848 -4.02798,-8.9191 -3.45256,-3.38063 -8.84718,-3.38063 z"
             inkscape:connector-curvature="0" />
          <path
             id="path4757"
             style="font-style:normal;font-variant:normal;font-weight:normal;font-stretch:normal;font-family:Comfortaa;-inkscape-font-specification:Comfortaa"
             d="m 544.40318,386.6189 q 5.10691,0 9.13489,2.15784 4.0999,2.15785 6.40161,6.32969 2.3017,4.0999 2.3017,9.85416 l 0,18.70134 q 0,1.15085 -0.79121,1.94206 -0.79121,0.79121 -1.94206,0.79121 -1.22278,0 -2.01399,-0.79121 -0.79121,-0.79121 -0.79121,-1.94206 l 0,-18.70134 q 0,-6.40161 -3.59641,-9.71031 -3.52449,-3.38062 -9.27874,-3.38062 -3.52449,0 -6.40162,1.36663 -2.8052,1.36664 -4.45955,3.8122 -1.65434,2.37363 -1.65434,5.32269 l 0,21.29075 q 0,1.22278 -0.79122,2.01399 -0.71928,0.71928 -1.94206,0.71928 -1.22278,0 -2.01399,-0.71928 -0.79121,-0.79121 -0.79121,-2.01399 l 0,-33.80626 q 0,-1.22278 0.79121,-2.01399 0.79121,-0.79122 2.01399,-0.79122 1.22278,0 1.94206,0.79122 0.79122,0.79121 0.79122,2.01399 l 0,2.44556 q 2.37363,-2.66135 5.75425,-4.17184 3.38063,-1.51049 7.33668,-1.51049 z"
             inkscape:connector-curvature="0" />
        </g>
        <g
           id="g4174"
           transform="translate(-328,-100)">
          <circle
             r="20.013739"
             cy="506.71155"
             cx="445.82312"
             id="circle4176"
             style="fill:#000000;fill-opacity:1;stroke:none;stroke-width:2.22896051;stroke-miterlimit:4;stroke-dasharray:none;stroke-dashoffset:0;stroke-opacity:1" />
          <path
             id="path4178"
             d="m 445.64713,506.71155 107.77197,0"
             style="fill:none;fill-rule:evenodd;stroke:#000000;stroke-width:6.25089025;stroke-linecap:round;stroke-linejoin:round;stroke-miterlimit:4;stroke-dasharray:none;stroke-opacity:1"
             inkscape:connector-curvature="0" />
        </g>
      </g>
    </g>
  </g>
</svg>
